<?xml version="1.0" encoding="UTF-8" standalone="no"?>
<!DOCTYPE svg PUBLIC "-//W3C//DTD SVG 1.1//EN" "http://www.w3.org/Graphics/SVG/1.1/DTD/svg11.dtd">
<svg width="100%" height="100%" viewBox="0 0 534 534" version="1.1" xmlns="http://www.w3.org/2000/svg" xmlns:xlink="http://www.w3.org/1999/xlink" xml:space="preserve" style="fill-rule:evenodd;clip-rule:evenodd;stroke-linecap:round;stroke-linejoin:round;stroke-miterlimit:1.5;">
    <g transform="matrix(1,0,0,1,-395.649,-166.862)">
        <g>
            <path d="M688.618,168.147C671.225,166.434 653.706,166.434 636.313,168.147L628.454,209.449C611.804,211.975 595.488,216.347 579.806,222.484L552.349,190.645C536.429,197.858 521.257,206.617 507.051,216.797L520.896,256.496C507.74,267.008 495.795,278.953 485.283,292.109L445.585,278.264C435.405,292.47 426.645,307.642 419.432,323.561L451.272,351.019C445.134,366.7 440.762,383.017 438.236,399.667L396.934,407.526C395.221,424.919 395.221,442.438 396.934,459.831L438.236,467.69C440.762,484.34 445.134,500.656 451.272,516.338L419.432,543.795C426.645,559.715 435.405,574.887 445.585,589.093L485.283,575.248C495.795,588.404 507.74,600.349 520.896,610.861L507.051,650.559C521.257,660.739 536.429,669.499 552.349,676.712L579.806,644.872C595.488,651.01 611.804,655.382 628.454,657.907L636.313,699.21C653.706,700.923 671.225,700.923 688.618,699.21L696.477,657.907C713.127,655.382 729.444,651.01 745.125,644.872L772.583,676.712C788.502,669.499 803.674,660.739 817.88,650.559L804.035,610.861C817.191,600.349 829.136,588.404 839.648,575.248L879.347,589.093C889.527,574.887 898.286,559.715 905.499,543.795L873.66,516.338C879.797,500.656 884.169,484.34 886.695,467.69L927.997,459.831C929.71,442.438 929.71,424.919 927.997,407.526L886.695,399.667C884.169,383.017 879.797,366.7 873.66,351.019L905.499,323.561C898.286,307.642 889.527,292.47 879.347,278.264L839.648,292.109C829.136,278.953 817.191,267.008 804.035,256.496L817.88,216.797C803.674,206.617 788.502,197.858 772.583,190.645L745.125,222.484C729.444,216.347 713.127,211.975 696.477,209.449L688.618,168.147ZM662.466,380.315C691.918,380.315 715.829,404.226 715.829,433.678C715.829,463.13 691.918,487.042 662.466,487.042C633.014,487.042 609.102,463.13 609.102,433.678C609.102,404.226 633.014,380.315 662.466,380.315Z" style="fill:rgb(40,40,40);"/>
            <g transform="matrix(0.866025,-0.5,0.543062,0.94061,-179.326,339.776)">
                <ellipse cx="678.409" cy="585.569" rx="32.966" ry="53.607" style="fill:rgb(200,60,60);"/>
            </g>
            <g transform="matrix(1,0,0,1,-12.3536,-3.97314)">
                <circle cx="570.225" cy="365.443" r="42.554" style="fill:rgb(215,215,215);"/>
            </g>
            <g transform="matrix(1,0,0,1,193.381,-3.97314)">
                <circle cx="570.225" cy="365.443" r="42.554" style="fill:rgb(215,215,215);"/>
            </g>
            <g transform="matrix(1,0,0,1,-5.41486,-9.49225)">
                <ellipse cx="569.412" cy="381.932" rx="16.902" ry="16.589"/>
            </g>
            <g transform="matrix(1,0,0,1,200.708,-9.49225)">
                <ellipse cx="569.412" cy="381.932" rx="16.902" ry="16.589"/>
            </g>
            <g transform="matrix(1.73815,0,0,1.73815,-589.302,-389.187)">
                <circle cx="720.172" cy="499.447" r="61.301" style="fill:rgb(40,40,40);"/>
            </g>
            <path d="M731.17,561.283C732.836,561.283 739.555,579.684 741.499,581.629C743.447,583.576 744.942,591.895 744.942,589.141C744.942,583.047 733.97,568.467 731.266,563.06C731.052,562.631 729.825,559.88 729.676,559.88" style="fill:none;stroke:black;stroke-width:1px;"/>
        </g>
        <g transform="matrix(1,0,0,1,-7.5727,0)">
            <path d="M670.038,400.141C670.038,400.141 644.705,455.652 644.705,479.443C644.705,493.424 656.057,504.776 670.038,504.776C684.02,504.776 695.372,493.424 695.372,479.443C695.372,455.652 670.038,400.141 670.038,400.141Z" style="fill:rgb(215,215,215);"/>
        </g>
    </g>
</svg>
